<?xml version="1.0" encoding="UTF-8"?>
<svg width="50px" height="50px" viewBox="0 0 50 50" version="1.1" xmlns="http://www.w3.org/2000/svg" xmlns:xlink="http://www.w3.org/1999/xlink">
    <!-- Generator: Sketch 47.1 (45422) - http://www.bohemiancoding.com/sketch -->
    <title>ic-advanced-call-routing</title>
    <desc>Created with Sketch.</desc>
    <defs></defs>
    <g id="Page-1" stroke="none" stroke-width="1" fill="none" fill-rule="evenodd">
        <g id="001-Fone-Dynamics-Homepage-Copy-8-999-Copy" transform="translate(-1101.000000, -1943.000000)">
            <g id="ic-advanced-call-routing" transform="translate(1101.000000, 1943.000000)">
                <rect id="Rectangle-13" fill="#FFD7D9" x="0" y="0" width="50" height="50" rx="25"></rect>
                <path d="M19.2966928,22.8888889 L20.9262092,22.8888889 C21.2677991,22.8888889 21.4577083,22.4937315 21.2443188,22.2269761 L17.9852861,18.152902 C17.822202,17.9490327 17.512151,17.9490327 17.3490669,18.152902 L14.0900342,22.2269761 C13.8766447,22.4937315 14.066554,22.8888889 14.4081439,22.8888889 L16.0376602,22.8888889 L16.0376602,23.2962963 C16.0376602,26.4463649 18.5911178,29 21.7409673,29 L25,29 L25,25.7407407 L21.7409673,25.7407407 C20.3910318,25.7407407 19.2966928,24.6463257 19.2966928,23.2962963 L19.2966928,22.8888889 Z" id="Combined-Shape" fill="#FC6F78" fill-rule="nonzero"></path>
                <path d="M33.9623398,24.7272727 L35.5918561,24.7272727 C35.933446,24.7272727 36.1233553,24.3451784 35.9099658,24.0872413 L32.6509331,20.1478474 C32.487849,19.9507175 32.177798,19.9507175 32.0147139,20.1478474 L28.7556812,24.0872413 C28.5422917,24.3451784 28.7322009,24.7272727 29.0737908,24.7272727 L30.7033072,24.7272727 L30.7033072,27.4848485 C30.7033072,28.7902488 29.6089682,29.8484848 28.2590327,29.8484848 L25,29.8484848 L25,33 L28.2590327,33 C31.4088822,33 33.9623398,30.5307826 33.9623398,27.4848485 L33.9623398,24.7272727 Z" id="Combined-Shape" fill="#FC6F78" fill-rule="nonzero"></path>
                <path d="M26.0552312,18.5818182 L26.0552312,35 L22.9447688,35 L22.9447688,18.5818182 L21.3895377,18.5818182 C21.06352,18.5818182 20.8822682,18.2114806 21.0859298,17.9614801 L24.1963921,14.1432983 C24.3520417,13.9522339 24.6479583,13.9522339 24.8036079,14.1432983 L27.9140702,17.9614801 C28.1177318,18.2114806 27.93648,18.5818182 27.6104623,18.5818182 L26.0552312,18.5818182 Z" id="Combined-Shape" fill="#FF999F" fill-rule="nonzero"></path>
            </g>
        </g>
    </g>
</svg>