<?xml version="1.0" encoding="UTF-8"?>
<svg width="50px" height="50px" viewBox="0 0 50 50" version="1.1" xmlns="http://www.w3.org/2000/svg" xmlns:xlink="http://www.w3.org/1999/xlink">
    <!-- Generator: Sketch 47.1 (45422) - http://www.bohemiancoding.com/sketch -->
    <title>ic-sms-gateway</title>
    <desc>Created with Sketch.</desc>
    <defs></defs>
    <g id="Page-1" stroke="none" stroke-width="1" fill="none" fill-rule="evenodd">
        <g id="001-Fone-Dynamics-Homepage---@2560" transform="translate(-730.000000, -3261.000000)">
            <g id="#4Advanced-SMS" transform="translate(-1.000000, 2421.000000)">
                <g id="Advanced" transform="translate(711.000000, 658.000000)">
                    <g id="Group-86" transform="translate(0.000000, 162.000000)">
                        <g id="Group-83" transform="translate(20.000000, 20.000000)">
                            <g id="ic-sms-gateway">
                                <rect id="Rectangle-13" fill="#E1FFF1" x="0" y="0" width="50" height="50" rx="25"></rect>
                                <g id="Group" transform="translate(16.000000, 15.000000)" fill-rule="nonzero">
                                    <g id="001-envelope">
                                        <g id="Group-35">
                                            <path d="M1.52560976,19 C1.37757974,19 1.23236398,18.9341853 1.12485929,18.8114156 C0.974577861,18.6402341 0.923639775,18.38805 0.993433396,18.1605463 L1.95281426,15.0356145 C0.690619137,13.5089036 0,11.6123016 0,9.65336544 C0,4.88211718 4.03761726,1 9,1 C13.9623827,1 18,4.88211718 18,9.65336544 C18,14.4246137 13.9629456,18.3067309 9.00028143,18.3067309 C7.75412758,18.3067309 6.54906191,18.0662542 5.41491557,17.5919454 L1.70206379,18.9680419 C1.64409006,18.9895582 1.58470919,19 1.52560976,19 Z" id="Shape" fill="#51EDA1"></path>
                                            <path d="M17.1337309,4.86947936 C18.4113295,5.13648484 19.9027176,4.39796124 19.9969309,2.65288662 C20.0687082,1.32570015 18.8695652,0.366929574 17.6500395,0.301111947 C16.3254113,0.229532928 15.3685479,1.43078291 15.3024603,2.6525735 C15.3428798,3.39899163 15.639378,3.96007676 16.0649712,4.33805204 L14.3421912,6.74994397 C14.1498368,6.6867747 13.9496178,6.64815469 13.7486201,6.63738934 C13.388287,6.6178521 13.0594821,6.70702812 12.774801,6.86999655 L10.7712221,4.86641766 C10.8407318,4.68752112 10.8835743,4.49815507 10.8939107,4.30772088 C10.9429294,3.39491618 10.1174908,2.7346107 9.27835958,2.68927105 C8.36713846,2.64011136 7.70770048,3.46724668 7.66262086,4.30772088 C7.67625103,4.56040796 7.73990021,4.79029998 7.83850016,4.99601921 C7.6989209,5.15812145 7.55932689,5.32020892 7.41972641,5.4822899 L6.23381283,6.65914822 C6.03645502,6.54535783 5.80618981,6.4757543 5.5513189,6.4618548 C4.76770875,6.41964635 4.20080592,7.13099024 4.1617911,7.85379429 C4.11958757,8.63859591 4.8302325,9.20628078 5.5513189,9.24504492 C6.33492904,9.28737861 6.90195692,8.5759721 6.94053408,7.85379429 C6.93669185,7.78146538 6.92811096,7.71129043 6.91520841,7.64335607 L8.75173708,5.82085054 C8.91399926,5.87971131 9.0902946,5.915925 9.27804696,5.92610808 C9.54452682,5.94040188 9.7891646,5.87939526 10.0032048,5.76515207 L11.9630112,7.72495852 C11.8014785,8.02627587 11.7034913,8.36393951 11.6852738,8.70416304 C11.7482978,9.8724729 12.5818644,10.7069352 13.74837,10.7702479 C14.9123121,10.8328717 15.7530064,9.77740995 15.8111535,8.70416304 C15.8387791,8.18895485 15.6477632,7.7379482 15.3340204,7.38907411 L17.1337309,4.86947936 Z" id="Combined-Shape" fill="#2AB7FF"></path>
                                        </g>
                                    </g>
                                </g>
                            </g>
                        </g>
                    </g>
                </g>
            </g>
        </g>
    </g>
</svg>
