<svg xmlns="http://www.w3.org/2000/svg" width="50" height="50" viewBox="0 0 50 50">
    <g fill="none" fill-rule="evenodd">
        <rect width="50" height="50" fill="#E5D9FF" rx="25"/>
        <g fill-rule="nonzero">
            <path fill="#AF64E6" d="M34.456 17.717c.125.603-.357 1.079-1.05.679l-1.664-.961a1.059 1.059 0 0 0-1.44.382l-.672 1.163c.348.024.682.122.975.291 1.025.592 1.343 1.836.754 2.958l-.02.036-.02.035c-.678 1.07-1.914 1.418-2.94.825a2.22 2.22 0 0 1-.74-.697l-.698 1.21-.003.005-.01.018a1.034 1.034 0 0 0 .381 1.41l1.683.972c.692.4.511 1.061-.069 1.257-.962.322-1.23 1.505-.195 2.162 1.087.568 1.977-.256 1.773-1.246-.126-.602.364-1.092 1.057-.692l1.647.95c.492.285 1.126.12 1.412-.374l.96-1.662c.397-.69 1.066-.504 1.264.076.327.96 1.522 1.238 2.176.207.566-1.082-.272-1.978-1.268-1.78-.604.122-1.1-.37-.702-1.06L38 22.227a1.034 1.034 0 0 0-.381-1.41l-1.647-.95c-.693-.4-.52-1.05.061-1.245.957-.314 1.225-1.496.194-2.15-1.086-.569-1.974.25-1.772 1.245z"/>
            <path fill="#FA80EC" d="M24.94 12.25c.124.604-.37 1.1-1.059.702l-1.644-.95a1.033 1.033 0 0 0-1.41.382l-.95 1.646c-.4.692-1.049.519-1.244-.061-.323-.962-1.506-1.23-2.162-.196-.569 1.087.251 1.974 1.245 1.773.603-.126 1.08.356.68 1.049l-.961 1.664a1.059 1.059 0 0 0 .382 1.44l1.163.67c.024-.347.122-.68.291-.973.594-1.03 1.838-1.347 2.96-.758l.035.02.036.02c1.07.678 1.418 1.914.826 2.939a2.22 2.22 0 0 1-.698.739l1.211.699.005.002.017.01c.49.284 1.124.117 1.41-.38l.972-1.682c.4-.692 1.06-.511 1.256.069.323.961 1.506 1.23 2.162.195.569-1.086-.255-1.976-1.245-1.772-.603.125-1.092-.365-.693-1.057l.95-1.646a1.033 1.033 0 0 0-.375-1.412l-1.661-.96c-.69-.398-.505-1.066.075-1.263.96-.327 1.238-1.522.207-2.176-1.082-.566-1.978.272-1.78 1.267zM24.929 27.31l-.972 1.682c-.4.692-1.061.511-1.257-.069-.322-.962-1.505-1.23-2.162-.195-.568 1.087.256 1.977 1.246 1.773.602-.126 1.092.364.692 1.057l-.95 1.647a1.034 1.034 0 0 0 .374 1.412l1.662.96c.69.397.504 1.066-.076 1.264-.96.327-1.238 1.522-.207 2.176 1.07.565 1.97-.277 1.77-1.269-.124-.603.37-1.1 1.059-.702l1.653.955c.49.283 1.124.115 1.41-.382l.952-1.647c.4-.692 1.048-.519 1.243.061.323.962 1.506 1.23 2.163.195.568-1.086-.252-1.974-1.246-1.772-.603.125-1.079-.357-.679-1.05l.961-1.664a1.059 1.059 0 0 0-.382-1.44l-1.163-.672a2.254 2.254 0 0 1-.291.975c-.592 1.025-1.836 1.343-2.958.754l-.036-.02-.035-.02c-1.07-.678-1.418-1.914-.825-2.94a2.22 2.22 0 0 1 .697-.74l-1.21-.698-.005-.003-.018-.01a1.034 1.034 0 0 0-1.41.381z"/>
            <path fill="#AF64E6" d="M19.497 21.782c.126.603-.364 1.093-1.057.693l-1.643-.949a1.034 1.034 0 0 0-1.413.375l-.96 1.662c-.397.69-1.066.504-1.264-.076-.327-.961-1.523-1.24-2.177-.208-.566 1.082.273 1.978 1.269 1.781.604-.123 1.1.37.702 1.06l-.949 1.644a1.034 1.034 0 0 0 .382 1.411l1.647.951c.693.4.52 1.049-.06 1.244-.962.323-1.23 1.506-.195 2.163 1.078.563 1.966-.256 1.764-1.25-.125-.604.357-1.08 1.05-.68l1.665.962c.502.29 1.152.117 1.44-.382l.672-1.163a2.256 2.256 0 0 1-.975-.291c-1.026-.593-1.344-1.837-.755-2.959l.02-.035.02-.036c.678-1.07 1.914-1.417 2.94-.825.298.172.55.412.74.698l.7-1.21.002-.005.01-.018a1.034 1.034 0 0 0-.382-1.41l-1.683-.972c-.693-.4-.512-1.062.069-1.257.962-.323 1.23-1.506.194-2.163-1.087-.568-1.977.255-1.773 1.245z"/>
        </g>
    </g>
</svg>
