<?xml version="1.0" encoding="UTF-8"?>
<svg width="30px" height="31px" viewBox="0 0 30 31" version="1.1" xmlns="http://www.w3.org/2000/svg" xmlns:xlink="http://www.w3.org/1999/xlink">
    <!-- Generator: Sketch 48.2 (47327) - http://www.bohemiancoding.com/sketch -->
    <title>Group 5</title>
    <desc>Created with Sketch.</desc>
    <defs></defs>
    <g id="Features-Page" stroke="none" stroke-width="1" fill="none" fill-rule="evenodd" transform="translate(-214.000000, -2569.000000)">
        <g id="KPI" transform="translate(215.000000, 2224.000000)">
            <g id="Group-5" transform="translate(0.000000, 346.000000)">
                <g id="Icon/05" transform="translate(0.000000, 0.500000)">
                    <g id="Page-1">
                        <path d="M14.5482286,25.2350857 C8.43908571,25.0030857 3.38365714,19.9476571 3.15165714,13.8385143 C3.03965714,10.8922286 4.0088,8.17851429 5.6848,6.04822857 C2.80994286,8.3088 1.0008,11.8636571 1.15165714,15.8385143 C1.38365714,21.9476571 6.43908571,27.0030857 12.5482286,27.2350857 C16.5230857,27.3859429 20.0779429,25.5768 22.3385143,22.7013714 C20.2082286,24.3779429 17.4945143,25.3470857 14.5482286,25.2350857" id="Fill-1" fill="#E5E7FD"></path>
                        <path d="M8.35777143,4.55714286 C3.52691429,6.18628571 0.0886285714,10.8405714 0.294342857,16.2668571 C0.526342857,22.3765714 5.58177143,27.432 11.6909143,27.6634286 C17.1177714,27.8697143 21.7714857,24.4308571 23.4012,19.6005714 C24.0297714,17.7365714 22.6274857,15.8051429 20.6606286,15.8051429 L16.4132,15.8051429 C14.0606286,15.8051429 12.1532,13.8977143 12.1532,11.5451429 L12.1532,7.29771429 C12.1532,5.33085714 10.2212,3.92857143 8.35777143,4.55714286 Z" id="Stroke-3" stroke="#8349df" stroke-width="2" stroke-linecap="round" stroke-linejoin="round"></path>
                        <path d="M15.8048,0.285714286 L15.8048,8.30057143 C15.8048,10.428 17.5299429,12.1531429 19.6579429,12.1531429 L27.6722286,12.1531429 C27.6722286,5.59885714 22.3590857,0.285714286 15.8048,0.285714286 Z" id="Stroke-5" stroke="#ec6ad5" stroke-width="2" stroke-linecap="round" stroke-linejoin="round"></path>
                    </g>
                </g>
            </g>
        </g>
    </g>
</svg>