<?xml version="1.0" encoding="UTF-8"?>
<svg width="26px" height="29px" viewBox="0 0 26 29" version="1.1" xmlns="http://www.w3.org/2000/svg" xmlns:xlink="http://www.w3.org/1999/xlink">
    <!-- Generator: Sketch 48.2 (47327) - http://www.bohemiancoding.com/sketch -->
    <title>Group 6</title>
    <desc>Created with Sketch.</desc>
    <defs>
        <polygon id="path-1" points="0.296968 12.32 1.976968 12.32 1.976968 0.170352 0.296968 0.170352 0.296968 12.32"></polygon>
    </defs>
    <g id="Features-Page" stroke="none" stroke-width="1" fill="none" fill-rule="evenodd" transform="translate(-214.000000, -2627.000000)">
        <g id="KPI" transform="translate(215.000000, 2224.000000)">
            <g id="Group-6" transform="translate(0.000000, 404.000000)">
                <g id="Icon/06">
                    <g id="Page-1">
                        <path d="M21.016968,11.05244 C21.016968,10.74332 20.627768,10.49244 20.176968,10.49244 C19.726168,10.49244 19.336968,10.74332 19.336968,11.05244 L19.336968,26.17244 C19.336968,26.48156 19.726168,26.73244 20.176968,26.73244 C20.627768,26.73244 21.016968,26.48156 21.016968,26.17244 L21.016968,11.05244 Z" id="Fill-1" fill="#E5E7FD"></path>
                        <g id="Group-5" transform="translate(9.520000, 15.532440)">
                            <mask id="mask-2" fill="white">
                                <use xlink:href="#path-1"></use>
                            </mask>
                            <g id="Clip-4"></g>
                            <path d="M1.976968,0.589232 C1.976968,0.357952 1.587768,0.170352 1.136968,0.170352 C0.686168,0.170352 0.296968,0.357952 0.296968,0.589232 L0.296968,11.901232 C0.296968,12.132512 0.686168,12.320112 1.136968,12.320112 C1.587768,12.320112 1.976968,12.132512 1.976968,11.901232 L1.976968,0.589232 Z" id="Fill-3" fill="#E5E7FD" mask="url(#mask-2)"></path>
                        </g>
                        <path d="M2.536968,20.919416 C2.536968,20.793976 2.147768,20.692056 1.696968,20.692056 C1.246168,20.692056 0.856968,20.793976 0.856968,20.919416 L0.856968,27.064856 C0.856968,27.190296 1.246168,27.292216 1.696968,27.292216 C2.147768,27.292216 2.536968,27.190296 2.536968,27.064856 L2.536968,20.919416 Z" id="Fill-6" fill="#E5E7FD"></path>
                        <path d="M10.520552,15.702736 L12.999672,15.702736 C13.692392,15.702736 14.254632,16.264416 14.254632,16.957696 L14.254632,25.672976 C14.254632,26.366256 13.692392,26.927936 12.999672,26.927936 L10.520552,26.927936 C9.827272,26.927936 9.265592,26.366256 9.265592,25.672976 L9.265592,16.957696 C9.265592,16.264416 9.827272,15.702736 10.520552,15.702736 Z" id="Stroke-8" stroke="#8349df" stroke-width="2" stroke-linecap="round" stroke-linejoin="round"></path>
                        <path d="M1.535072,20.691832 L4.014192,20.691832 C4.706912,20.691832 5.269152,21.253512 5.269152,21.946792 L5.269152,25.673032 C5.269152,26.366312 4.706912,26.927992 4.014192,26.927992 L1.535072,26.927992 C0.841792,26.927992 0.280112,26.366312 0.280112,25.673032 L0.280112,21.946792 C0.280112,21.253512 0.841792,20.691832 1.535072,20.691832 Z" id="Stroke-10" stroke="#8349df" stroke-width="2" stroke-linecap="round" stroke-linejoin="round"></path>
                        <path d="M20.066032,10.71364 L22.545152,10.71364 C23.237872,10.71364 23.800112,11.27532 23.800112,11.9686 L23.800112,25.67292 C23.800112,26.3662 23.237872,26.92844 22.545152,26.92844 L20.066032,26.92844 C19.372752,26.92844 18.811072,26.3662 18.811072,25.67292 L18.811072,11.9686 C18.811072,11.27532 19.372752,10.71364 20.066032,10.71364 Z" id="Stroke-12" stroke="#8349df" stroke-width="2" stroke-linecap="round" stroke-linejoin="round"></path>
                        <path d="M0.318696,14.4018 L4.259416,9.14172 C5.003656,8.14828 6.412056,7.94668 7.404936,8.69036 L9.455096,10.22644 C10.447976,10.97012 11.856376,10.76852 12.600616,9.77508 L19.714296,0.27972" id="Stroke-14" stroke="#ec6ad5" stroke-width="2" stroke-linecap="round" stroke-linejoin="round"></path>
                        <polyline id="Stroke-16" stroke="#ec6ad5" stroke-width="2" stroke-linecap="round" stroke-linejoin="round" points="13.540856 1.165304 19.714296 0.279944 20.599096 6.453384"></polyline>
                    </g>
                </g>
            </g>
        </g>
    </g>
</svg>