<?xml version="1.0" encoding="UTF-8"?>
<svg width="28px" height="30px" viewBox="0 0 28 30" version="1.1" xmlns="http://www.w3.org/2000/svg" xmlns:xlink="http://www.w3.org/1999/xlink">
    <!-- Generator: Sketch 48.2 (47327) - http://www.bohemiancoding.com/sketch -->
    <title>Group 4</title>
    <desc>Created with Sketch.</desc>
    <defs></defs>
    <g id="Features-Page" stroke="none" stroke-width="1" fill="none" fill-rule="evenodd" transform="translate(-214.000000, -2512.000000)">
        <g id="KPI" transform="translate(215.000000, 2224.000000)">
            <g id="Group-4" transform="translate(0.000000, 289.000000)">
                <g id="Icon/04">
                    <g id="Page-1">
                        <path d="M3.56397391,24.5380435 L3.56397391,11.9660435 C3.56397391,10.5964783 3.96693043,9.28291304 4.93536522,8.31447826 L11.3467565,1.83247826 C11.6115391,1.56769565 11.8793652,1.36986957 12.195887,1.20795652 C10.9693652,0.551782609 9.39710435,0.725869565 8.36232174,1.76065217 L2.43606087,7.78613043 C1.5358,8.6863913 1.1291913,9.90743478 1.1291913,11.1808261 L1.1291913,22.8677826 C1.1291913,24.9708261 2.5164087,26.753087 4.39910435,27.4025652 C3.85127826,26.5826522 3.56397391,25.5977826 3.56397391,24.5380435" id="Fill-1" fill="#E5E7FD"></path>
                        <path d="M12.9458609,27.1617043 L5.10525217,27.1617043 C2.45377391,27.1617043 0.304469565,25.0124 0.304469565,22.3609217 L0.304469565,10.6739652 C0.304469565,9.40118261 0.810295652,8.17953043 1.71055652,7.27926957 L7.73603478,1.2537913 C9.00212174,-0.0122956522 11.0552522,-0.0122956522 12.3213391,1.2537913 L18.3468174,7.27926957 C19.2470783,8.17953043 19.7529043,9.40118261 19.7529043,10.6739652 L19.7529043,11.6028348" id="Stroke-3" stroke="#8349df" stroke-width="2" stroke-linecap="round" stroke-linejoin="round"></path>
                        <path d="M10.0286261,6.74075652 C11.1029739,6.74075652 11.9734087,7.6118 11.9734087,8.68553913 C11.9734087,9.75988696 11.1029739,10.6303217 10.0286261,10.6303217 C8.95427826,10.6303217 8.08384348,9.75988696 8.08384348,8.68553913 C8.08384348,7.6118 8.95427826,6.74075652 10.0286261,6.74075652 Z" id="Stroke-5" stroke="#8349df" stroke-width="2" stroke-linecap="round" stroke-linejoin="round"></path>
                        <path d="M24.6548522,16.4572435 C23.2353739,14.9878522 20.8675478,15.228287 19.7530261,16.966113 C18.637287,15.2264609 16.2688522,14.9896783 14.8505913,16.4572435 C13.6082435,17.7440261 13.6082435,19.8288087 14.8505913,21.1149826 L19.7518087,26.1890696 L24.6548522,21.1149826 C25.8984174,19.8288087 25.8984174,17.7440261 24.6548522,16.4572435 Z" id="Stroke-7" stroke="#ec6ad5" stroke-width="2" stroke-linecap="round" stroke-linejoin="round"></path>
                    </g>
                </g>
            </g>
        </g>
    </g>
</svg>