<?xml version="1.0" encoding="UTF-8"?>
<svg width="28px" height="30px" viewBox="0 0 28 30" version="1.1" xmlns="http://www.w3.org/2000/svg" xmlns:xlink="http://www.w3.org/1999/xlink">
    <!-- Generator: Sketch 48.2 (47327) - http://www.bohemiancoding.com/sketch -->
    <title>Group 9</title>
    <desc>Created with Sketch.</desc>
    <defs></defs>
    <g id="Features-Page" stroke="none" stroke-width="1" fill="none" fill-rule="evenodd" transform="translate(-953.000000, -3564.000000)">
        <g id="Content-Explorer" transform="translate(-778.000000, 2665.000000)">
            <g id="Group-9" transform="translate(1732.000000, 900.000000)">
                <g id="Icon/03">
                    <g id="Page-1">
                        <path d="M4.36957073,27.9019317 L3.46879024,27.9019317 C1.74166829,27.9019317 0.341668293,26.5019317 0.341668293,24.7748098 L0.341668293,1.10934634 L4.36957073,1.10934634 L4.36957073,27.9019317 Z" id="Fill-1" fill-opacity="0.964419158" fill="#E5E7FD"></path>
                        <path d="M23.6891024,24.6891707 L20.3577854,21.3578537" id="Stroke-3" stroke="#ec6ad5" stroke-width="2" stroke-linecap="round" stroke-linejoin="round"></path>
                        <path d="M17.0304976,13.8154732 C19.3585951,13.8154732 21.245522,15.7024 21.245522,18.0304976 C21.245522,20.3585951 19.3585951,22.245522 17.0304976,22.245522 C14.7024,22.245522 12.8154732,20.3585951 12.8154732,18.0304976 C12.8154732,15.7024 14.7024,13.8154732 17.0304976,13.8154732 Z" id="Stroke-5" stroke="#ec6ad5" stroke-width="2" stroke-linecap="round" stroke-linejoin="round"></path>
                        <path d="M17.4902341,0.341463415 L17.4902341,5.26536585 C17.4902341,7.28136585 15.8559902,8.91560976 13.8393073,8.91560976 L8.89150244,8.91560976 C6.87550244,8.91560976 5.24125854,7.28136585 5.24125854,5.26536585 L5.24125854,0.341463415" id="Stroke-7" stroke="#8349df" stroke-width="2" stroke-linecap="round" stroke-linejoin="round"></path>
                        <path d="M13.8154732,4.0161561 L13.8154732,5.24132683" id="Stroke-9" stroke="#FFFFFF" stroke-width="2" stroke-linecap="round" stroke-linejoin="round"></path>
                        <path d="M19.5436585,27.2894829 L3.86570732,27.2894829 C1.91936585,27.2894829 0.341121951,25.711239 0.341121951,23.7648976 L0.341121951,3.86577561 C0.341121951,1.91943415 1.91936585,0.341190244 3.86570732,0.341190244 L17.3510732,0.341190244 C18.4895122,0.341190244 19.5576098,0.890946341 20.2193659,1.81767805 L24.633122,7.9968 C25.0599512,8.59436098 25.2894146,9.31075122 25.2894146,10.0455805 L25.2894146,18.8819707" id="Stroke-11" stroke="#8349df" stroke-width="2" stroke-linecap="round" stroke-linejoin="round"></path>
                    </g>
                </g>
            </g>
        </g>
    </g>
</svg>